<svg xmlns="http://www.w3.org/2000/svg" xmlns:xlink="http://www.w3.org/1999/xlink" viewBox="0 0 372.15 110.87"><defs><style>.cls-1,.cls-3{fill:#273e5a;}.cls-2{fill:url(#Dégradé_sans_nom_55);}.cls-3{stroke:#273e5a;stroke-miterlimit:10;stroke-width:3px;}</style><linearGradient id="Dégradé_sans_nom_55" x1="69.03" y1="46.12" x2="61.24" y2="108.79" gradientUnits="userSpaceOnUse"><stop offset="0" stop-color="#273e5a"/><stop offset="0.41" stop-color="#172432"/><stop offset="1" stop-color="#273e5a"/></linearGradient></defs><g id="Calque_2" data-name="Calque 2"><g id="Calque_1-2" data-name="Calque 1"><path class="cls-1" d="M303,70.62c0-19.91,15.39-34.08,34.57-34.08A37.06,37.06,0,0,1,348,38,33.64,33.64,0,0,1,364.38,48.6a32.88,32.88,0,0,1,5.73,10,35.51,35.51,0,0,1,2,12c0,19.91-15.39,34.08-34.57,34.08S303,90.53,303,70.62Zm34.57,16.13c8.67,0,15.27-6.48,15.27-16.13a19.26,19.26,0,0,0-.32-3.54,14.85,14.85,0,0,0-8.91-11.42,15.7,15.7,0,0,0-6-1.16c-8.67,0-15.27,6.47-15.27,16.12S328.91,86.75,337.58,86.75Z"/><path class="cls-1" d="M154.39,37h8.31V54.37h-6.48c-3.91,0-5.62,1.71-5.62,5.62l.75,41.77H132l-.74-41.29C131.3,44.23,140,37,154.39,37Z"/><path class="cls-1" d="M165.81,69.64c0-20.4,14.65-34.21,33.47-34.21,17.71,0,34,12.1,31.27,39.21H184c1.83,7.7,8.06,12.34,16.61,12.34,6.84,0,12.71-2.93,17.47-8.91l12.46,10.38c-7.21,9.53-17.47,14.9-30.3,14.9C179.61,103.35,165.81,89.43,165.81,69.64Zm46.9-8.31c-1.46-6.6-6.35-10.26-13.56-10.26s-12.82,4-14.9,10.26Z"/><path class="cls-1" d="M267.38,86.51l-6.47.15c-3.91.09-5.66-1.58-5.75-5.49L255,40.51V9.79h-19.3v30l.2,41.3c.34,14.46,7.39,21.58,19.1,22.74a38.89,38.89,0,0,0,4.52.18l8.31-.19Z"/><path class="cls-1" d="M302.46,86.51l-6.47.15c-3.91.09-5.66-1.58-5.75-5.49L290,40.51V9.79h-19.3v30l.2,41.3c.33,14.46,7.39,21.58,19.1,22.74a38.89,38.89,0,0,0,4.52.18l8.31-.19Z"/><path class="cls-2" d="M46.68,39.86s-.13,5.63,0,10.92c.21,8.66,2.49,24.69,5.75,36.57S58,103.89,58,103.89l26.09,7S77.18,97.94,73.8,77.28c-3.24-19.76-3.33-25.5-3.88-34.2Z"/><circle class="cls-3" cx="11.39" cy="59.14" r="9.89"/><path class="cls-3" d="M87.75,1.5c-23.21,0-39.26,14.23-39.59,39.59l20.26,2.29c0-1,0-1.39,0-2.27C69,25.34,78.16,20.29,88.25,20.29c13.3,0,19.77,9.15,19.77,20.83s-7.67,21.84-20.56,22h0a118.82,118.82,0,0,1-15.24-.84h0c-.62-.09-1.13-.17-1.56-.25h0c-5.77-1-15.51-3-20.88-4-1.81-.34-7.1-1.56-10.38-2.32l-2.72-.63h0L35.1,54.7l.76,18.54s2.93.64,7.8,1.57a14.73,14.73,0,0,1,1.64.25c2,.4,4.43.84,7,1.28h0c4.22.73,12.39,2.08,20.83,3.11.67.09,1.6.2,2.8.29a3.41,3.41,0,0,1,.54.1c1.66.17,3.34.33,5,.46h0c2.12.17,4.22.3,6.19.37,22.54.79,38.44-17.68,38.44-39.54S109.62,1.5,87.75,1.5Z"/></g></g></svg>